<svg width="33" height="32" viewBox="0 0 33 32" fill="none" xmlns="http://www.w3.org/2000/svg">
<path d="M9.26856 14.3867C11.1886 18.16 14.2819 21.24 18.0552 23.1733L20.9886 20.24C21.3486 19.88 21.8819 19.76 22.3486 19.92C23.8419 20.4133 25.4552 20.68 27.1086 20.68C27.8419 20.68 28.4419 21.28 28.4419 22.0133V26.6667C28.4419 27.4 27.8419 28 27.1086 28C14.5886 28 4.44189 17.8533 4.44189 5.33333C4.44189 4.6 5.04189 4 5.77523 4H10.4419C11.1752 4 11.7752 4.6 11.7752 5.33333C11.7752 7 12.0419 8.6 12.5352 10.0933C12.6819 10.56 12.5752 11.08 12.2019 11.4533L9.26856 14.3867Z" fill="#007377"/>
</svg>
