<svg width="184" height="42" viewBox="0 0 184 42" fill="none" xmlns="http://www.w3.org/2000/svg">
<rect width="184" height="42" rx="21" fill="white"/>
<path d="M25.3284 27.5V14.54H33.1314V16.709H27.4974V19.94H32.0514V22.1H27.4974V27.5H25.3284ZM34.9302 16.304V14.315H37.0992V16.304H34.9302ZM34.9302 27.5V17.78H37.0992V27.5H34.9302ZM46.5182 27.5V22.82C46.5182 22.514 46.4972 22.175 46.4552 21.803C46.4132 21.431 46.3142 21.074 46.1582 20.732C46.0082 20.384 45.7802 20.099 45.4742 19.877C45.1742 19.655 44.7662 19.544 44.2502 19.544C43.9742 19.544 43.7012 19.589 43.4312 19.679C43.1612 19.769 42.9152 19.925 42.6932 20.147C42.4772 20.363 42.3032 20.663 42.1712 21.047C42.0392 21.425 41.9732 21.911 41.9732 22.505L40.6862 21.956C40.6862 21.128 40.8452 20.378 41.1632 19.706C41.4872 19.034 41.9612 18.5 42.5852 18.104C43.2092 17.702 43.9772 17.501 44.8892 17.501C45.6092 17.501 46.2032 17.621 46.6712 17.861C47.1392 18.101 47.5112 18.407 47.7872 18.779C48.0632 19.151 48.2672 19.547 48.3992 19.967C48.5312 20.387 48.6152 20.786 48.6512 21.164C48.6932 21.536 48.7142 21.839 48.7142 22.073V27.5H46.5182ZM39.7772 27.5V17.78H41.7122V20.795H41.9732V27.5H39.7772ZM54.8015 27.77C53.9075 27.77 53.1275 27.545 52.4615 27.095C51.7955 26.645 51.2795 26.033 50.9135 25.259C50.5475 24.485 50.3645 23.612 50.3645 22.64C50.3645 21.656 50.5475 20.78 50.9135 20.012C51.2855 19.238 51.8105 18.629 52.4885 18.185C53.1665 17.735 53.9645 17.51 54.8825 17.51C55.8065 17.51 56.5805 17.735 57.2045 18.185C57.8345 18.629 58.3115 19.238 58.6355 20.012C58.9595 20.786 59.1215 21.662 59.1215 22.64C59.1215 23.606 58.9595 24.479 58.6355 25.259C58.3115 26.033 57.8285 26.645 57.1865 27.095C56.5445 27.545 55.7495 27.77 54.8015 27.77ZM55.1345 25.826C55.7165 25.826 56.1845 25.694 56.5385 25.43C56.8985 25.16 57.1595 24.785 57.3215 24.305C57.4895 23.825 57.5735 23.27 57.5735 22.64C57.5735 22.004 57.4895 21.449 57.3215 20.975C57.1595 20.495 56.9045 20.123 56.5565 19.859C56.2085 19.589 55.7585 19.454 55.2065 19.454C54.6245 19.454 54.1445 19.598 53.7665 19.886C53.3885 20.168 53.1095 20.552 52.9295 21.038C52.7495 21.518 52.6595 22.052 52.6595 22.64C52.6595 23.234 52.7465 23.774 52.9205 24.26C53.1005 24.74 53.3735 25.121 53.7395 25.403C54.1055 25.685 54.5705 25.826 55.1345 25.826ZM57.5735 27.5V20.678H57.3035V14.54H59.4905V27.5H57.5735ZM69.9104 27.77C68.9384 27.77 68.0894 27.551 67.3634 27.113C66.6374 26.675 66.0734 26.072 65.6714 25.304C65.2754 24.53 65.0774 23.642 65.0774 22.64C65.0774 21.62 65.2814 20.726 65.6894 19.958C66.0974 19.19 66.6644 18.59 67.3904 18.158C68.1164 17.726 68.9564 17.51 69.9104 17.51C70.8884 17.51 71.7404 17.729 72.4664 18.167C73.1924 18.605 73.7564 19.211 74.1584 19.985C74.5604 20.753 74.7614 21.638 74.7614 22.64C74.7614 23.648 74.5574 24.539 74.1494 25.313C73.7474 26.081 73.1834 26.684 72.4574 27.122C71.7314 27.554 70.8824 27.77 69.9104 27.77ZM69.9104 25.736C70.7744 25.736 71.4164 25.448 71.8364 24.872C72.2564 24.296 72.4664 23.552 72.4664 22.64C72.4664 21.698 72.2534 20.948 71.8274 20.39C71.4014 19.826 70.7624 19.544 69.9104 19.544C69.3284 19.544 68.8484 19.676 68.4704 19.94C68.0984 20.198 67.8224 20.561 67.6424 21.029C67.4624 21.491 67.3724 22.028 67.3724 22.64C67.3724 23.582 67.5854 24.335 68.0114 24.899C68.4434 25.457 69.0764 25.736 69.9104 25.736ZM80.3894 27.779C79.6694 27.779 79.0754 27.659 78.6074 27.419C78.1394 27.179 77.7674 26.873 77.4914 26.501C77.2154 26.129 77.0114 25.733 76.8794 25.313C76.7474 24.893 76.6604 24.497 76.6184 24.125C76.5824 23.747 76.5644 23.441 76.5644 23.207V17.78H78.7604V22.46C78.7604 22.76 78.7814 23.099 78.8234 23.477C78.8654 23.849 78.9614 24.209 79.1114 24.557C79.2674 24.899 79.4954 25.181 79.7954 25.403C80.1014 25.625 80.5124 25.736 81.0284 25.736C81.3044 25.736 81.5774 25.691 81.8474 25.601C82.1174 25.511 82.3604 25.358 82.5764 25.142C82.7984 24.92 82.9754 24.617 83.1074 24.233C83.2394 23.849 83.3054 23.363 83.3054 22.775L84.5924 23.324C84.5924 24.152 84.4304 24.902 84.1064 25.574C83.7884 26.246 83.3174 26.783 82.6934 27.185C82.0694 27.581 81.3014 27.779 80.3894 27.779ZM83.5664 27.5V24.485H83.3054V17.78H85.4834V27.5H83.5664ZM93.709 27.5C93.067 27.62 92.437 27.671 91.819 27.653C91.207 27.641 90.658 27.53 90.172 27.32C89.686 27.104 89.317 26.765 89.065 26.303C88.843 25.883 88.726 25.454 88.714 25.016C88.702 24.578 88.696 24.083 88.696 23.531V15.08H90.856V23.405C90.856 23.795 90.859 24.137 90.865 24.431C90.877 24.725 90.94 24.965 91.054 25.151C91.27 25.511 91.615 25.712 92.089 25.754C92.563 25.796 93.103 25.772 93.709 25.682V27.5ZM86.932 19.481V17.78H93.709V19.481H86.932ZM101.473 27.5L98.5026 17.762L100.627 17.78L102.526 24.017L104.452 17.78H106.279L108.196 24.017L110.104 17.78H112.228L109.258 27.5H107.566L105.361 20.813L103.165 27.5H101.473ZM120.575 27.5V22.82C120.575 22.514 120.554 22.175 120.512 21.803C120.47 21.431 120.371 21.074 120.215 20.732C120.065 20.384 119.837 20.099 119.531 19.877C119.231 19.655 118.823 19.544 118.307 19.544C118.031 19.544 117.758 19.589 117.488 19.679C117.218 19.769 116.972 19.925 116.75 20.147C116.534 20.363 116.36 20.663 116.228 21.047C116.096 21.425 116.03 21.911 116.03 22.505L114.743 21.956C114.743 21.128 114.902 20.378 115.22 19.706C115.544 19.034 116.018 18.5 116.642 18.104C117.266 17.702 118.034 17.501 118.946 17.501C119.666 17.501 120.26 17.621 120.728 17.861C121.196 18.101 121.568 18.407 121.844 18.779C122.12 19.151 122.324 19.547 122.456 19.967C122.588 20.387 122.672 20.786 122.708 21.164C122.75 21.536 122.771 21.839 122.771 22.073V27.5H120.575ZM113.834 27.5V14.54H115.769V21.362H116.03V27.5H113.834ZM126.397 31.82L128.269 26.681L128.305 28.193L124.066 17.78H126.325L129.331 25.484H128.755L131.68 17.78H133.849L128.431 31.82H126.397Z" fill="#007377"/>
<rect x="176" y="6" width="30" height="30" rx="15" transform="rotate(90 176 6)" fill="#007377"/>
<g clip-path="url(#clip0_1_350)">
<path d="M165 21.5L159.51 27L158 25.5562L162.049 21.5L158 17.4437L159.51 16L165 21.5Z" fill="white"/>
</g>
<defs>
<clipPath id="clip0_1_350">
<rect width="10" height="10" fill="white" transform="translate(166 16) rotate(90)"/>
</clipPath>
</defs>
</svg>
