<svg width="176" height="42" viewBox="0 0 176 42" fill="none" xmlns="http://www.w3.org/2000/svg">
<rect width="176" height="42" rx="21" fill="#007377"/>
<path d="M30.6998 27.77C29.8598 27.77 29.0708 27.623 28.3328 27.329C27.6008 27.029 26.9558 26.591 26.3978 26.015C25.8458 25.439 25.4138 24.734 25.1018 23.9C24.7898 23.06 24.6338 22.1 24.6338 21.02C24.6338 19.604 24.8978 18.395 25.4258 17.393C25.9538 16.385 26.6768 15.614 27.5948 15.08C28.5128 14.54 29.5478 14.27 30.6998 14.27C32.2958 14.27 33.5588 14.642 34.4888 15.386C35.4248 16.124 36.0578 17.162 36.3878 18.5L34.1738 18.851C33.9277 18.083 33.5258 17.471 32.9678 17.015C32.4098 16.553 31.6988 16.322 30.8348 16.322C29.9648 16.31 29.2418 16.499 28.6658 16.889C28.0898 17.279 27.6548 17.828 27.3608 18.536C27.0728 19.244 26.9288 20.072 26.9288 21.02C26.9288 21.968 27.0728 22.793 27.3608 23.495C27.6488 24.191 28.0808 24.734 28.6568 25.124C29.2388 25.514 29.9648 25.715 30.8348 25.727C31.4888 25.733 32.0618 25.616 32.5538 25.376C33.0458 25.13 33.4478 24.761 33.7598 24.269C34.0718 23.771 34.2818 23.15 34.3898 22.406H32.1038V20.705H36.6938C36.7058 20.801 36.7148 20.942 36.7208 21.128C36.7268 21.314 36.7298 21.425 36.7298 21.461C36.7298 22.685 36.4868 23.774 36.0008 24.728C35.5208 25.676 34.8308 26.42 33.9308 26.96C33.0308 27.5 31.9538 27.77 30.6998 27.77ZM42.9563 27.77C41.9723 27.77 41.1083 27.557 40.3643 27.131C39.6203 26.705 39.0383 26.114 38.6183 25.358C38.2043 24.602 37.9973 23.732 37.9973 22.748C37.9973 21.686 38.2013 20.765 38.6093 19.985C39.0173 19.199 39.5843 18.59 40.3103 18.158C41.0363 17.726 41.8763 17.51 42.8303 17.51C43.8383 17.51 44.6933 17.747 45.3953 18.221C46.1033 18.689 46.6283 19.352 46.9703 20.21C47.3123 21.068 47.4413 22.079 47.3573 23.243H45.2063V22.451C45.2003 21.395 45.0143 20.624 44.6483 20.138C44.2823 19.652 43.7063 19.409 42.9203 19.409C42.0323 19.409 41.3723 19.685 40.9403 20.237C40.5083 20.783 40.2923 21.584 40.2923 22.64C40.2923 23.624 40.5083 24.386 40.9403 24.926C41.3723 25.466 42.0023 25.736 42.8303 25.736C43.3643 25.736 43.8233 25.619 44.2073 25.385C44.5973 25.145 44.8973 24.8 45.1073 24.35L47.2493 24.998C46.8773 25.874 46.3013 26.555 45.5213 27.041C44.7473 27.527 43.8923 27.77 42.9563 27.77ZM39.6083 23.243V21.605H46.2953V23.243H39.6083ZM55.0625 27.5C54.4205 27.62 53.7905 27.671 53.1725 27.653C52.5605 27.641 52.0115 27.53 51.5255 27.32C51.0395 27.104 50.6705 26.765 50.4185 26.303C50.1965 25.883 50.0795 25.454 50.0675 25.016C50.0555 24.578 50.0495 24.083 50.0495 23.531V15.08H52.2095V23.405C52.2095 23.795 52.2125 24.137 52.2185 24.431C52.2305 24.725 52.2935 24.965 52.4075 25.151C52.6235 25.511 52.9685 25.712 53.4425 25.754C53.9165 25.796 54.4565 25.772 55.0625 25.682V27.5ZM48.2855 19.481V17.78H55.0625V19.481H48.2855ZM65.5531 27.77C64.6051 27.77 63.7501 27.605 62.9881 27.275C62.2321 26.945 61.6081 26.474 61.1161 25.862C60.6301 25.244 60.3211 24.512 60.1891 23.666L62.4391 23.324C62.6311 24.092 63.0241 24.686 63.6181 25.106C64.2181 25.526 64.9081 25.736 65.6881 25.736C66.1501 25.736 66.5851 25.664 66.9931 25.52C67.4011 25.376 67.7311 25.166 67.9831 24.89C68.2411 24.614 68.3701 24.275 68.3701 23.873C68.3701 23.693 68.3401 23.528 68.2801 23.378C68.2201 23.222 68.1301 23.084 68.0101 22.964C67.8961 22.844 67.7461 22.736 67.5601 22.64C67.3801 22.538 67.1701 22.451 66.9301 22.379L63.5821 21.389C63.2941 21.305 62.9821 21.194 62.6461 21.056C62.3161 20.912 62.0011 20.717 61.7011 20.471C61.4071 20.219 61.1641 19.901 60.9721 19.517C60.7861 19.127 60.6931 18.647 60.6931 18.077C60.6931 17.243 60.9031 16.544 61.3231 15.98C61.7491 15.41 62.3191 14.984 63.0331 14.702C63.7531 14.42 64.5511 14.282 65.4271 14.288C66.3151 14.294 67.1071 14.447 67.8031 14.747C68.4991 15.041 69.0811 15.47 69.5491 16.034C70.0171 16.598 70.3471 17.279 70.5391 18.077L68.2081 18.482C68.1121 18.026 67.9261 17.639 67.6501 17.321C67.3801 16.997 67.0471 16.751 66.6511 16.583C66.2611 16.415 65.8441 16.325 65.4001 16.313C64.9681 16.307 64.5661 16.373 64.1941 16.511C63.8281 16.643 63.5311 16.835 63.3031 17.087C63.0811 17.339 62.9701 17.633 62.9701 17.969C62.9701 18.287 63.0661 18.548 63.2581 18.752C63.4501 18.95 63.6871 19.109 63.9691 19.229C64.2571 19.343 64.5481 19.439 64.8421 19.517L67.1641 20.165C67.4821 20.249 67.8391 20.363 68.2351 20.507C68.6311 20.651 69.0121 20.852 69.3781 21.11C69.7441 21.368 70.0441 21.707 70.2781 22.127C70.5181 22.547 70.6381 23.081 70.6381 23.729C70.6381 24.401 70.4971 24.992 70.2151 25.502C69.9391 26.006 69.5641 26.426 69.0901 26.762C68.6161 27.098 68.0731 27.35 67.4611 27.518C66.8551 27.686 66.2191 27.77 65.5531 27.77ZM78.2832 27.5C77.6412 27.62 77.0112 27.671 76.3932 27.653C75.7812 27.641 75.2322 27.53 74.7462 27.32C74.2602 27.104 73.8912 26.765 73.6392 26.303C73.4172 25.883 73.3002 25.454 73.2882 25.016C73.2762 24.578 73.2702 24.083 73.2702 23.531V15.08H75.4302V23.405C75.4302 23.795 75.4332 24.137 75.4392 24.431C75.4512 24.725 75.5142 24.965 75.6282 25.151C75.8442 25.511 76.1892 25.712 76.6632 25.754C77.1372 25.796 77.6772 25.772 78.2832 25.682V27.5ZM71.5062 19.481V17.78H78.2832V19.481H71.5062ZM83.0913 27.77C82.3893 27.77 81.7953 27.638 81.3093 27.374C80.8233 27.104 80.4543 26.747 80.2023 26.303C79.9563 25.859 79.8333 25.37 79.8333 24.836C79.8333 24.368 79.9113 23.948 80.0673 23.576C80.2233 23.198 80.4633 22.874 80.7873 22.604C81.1113 22.328 81.5313 22.103 82.0473 21.929C82.4373 21.803 82.8933 21.689 83.4153 21.587C83.9433 21.485 84.5133 21.392 85.1253 21.308C85.7433 21.218 86.3883 21.122 87.0603 21.02L86.2863 21.461C86.2923 20.789 86.1423 20.294 85.8363 19.976C85.5303 19.658 85.0143 19.499 84.2883 19.499C83.8503 19.499 83.4273 19.601 83.0193 19.805C82.6113 20.009 82.3263 20.36 82.1643 20.858L80.1843 20.237C80.4243 19.415 80.8803 18.755 81.5523 18.257C82.2303 17.759 83.1423 17.51 84.2883 17.51C85.1523 17.51 85.9113 17.651 86.5653 17.933C87.2253 18.215 87.7143 18.677 88.0323 19.319C88.2063 19.661 88.3113 20.012 88.3473 20.372C88.3833 20.726 88.4013 21.113 88.4013 21.533V27.5H86.5023V25.394L86.8173 25.736C86.3793 26.438 85.8663 26.954 85.2783 27.284C84.6963 27.608 83.9673 27.77 83.0913 27.77ZM83.5233 26.042C84.0153 26.042 84.4353 25.955 84.7833 25.781C85.1313 25.607 85.4073 25.394 85.6113 25.142C85.8213 24.89 85.9623 24.653 86.0343 24.431C86.1483 24.155 86.2113 23.84 86.2233 23.486C86.2413 23.126 86.2503 22.835 86.2503 22.613L86.9163 22.811C86.2623 22.913 85.7013 23.003 85.2333 23.081C84.7653 23.159 84.3633 23.234 84.0273 23.306C83.6913 23.372 83.3943 23.447 83.1363 23.531C82.8843 23.621 82.6713 23.726 82.4973 23.846C82.3233 23.966 82.1883 24.104 82.0923 24.26C82.0023 24.416 81.9573 24.599 81.9573 24.809C81.9573 25.049 82.0173 25.262 82.1373 25.448C82.2573 25.628 82.4313 25.772 82.6593 25.88C82.8933 25.988 83.1813 26.042 83.5233 26.042ZM90.7444 27.5V17.78H92.6614V20.147L92.4274 19.841C92.5474 19.517 92.7064 19.223 92.9044 18.959C93.1084 18.689 93.3514 18.467 93.6334 18.293C93.8734 18.131 94.1374 18.005 94.4254 17.915C94.7194 17.819 95.0194 17.762 95.3254 17.744C95.6314 17.72 95.9284 17.732 96.2164 17.78V19.805C95.9284 19.721 95.5954 19.694 95.2174 19.724C94.8454 19.754 94.5094 19.859 94.2094 20.039C93.9094 20.201 93.6634 20.408 93.4714 20.66C93.2854 20.912 93.1474 21.2 93.0574 21.524C92.9674 21.842 92.9224 22.187 92.9224 22.559V27.5H90.7444ZM103.631 27.5C102.989 27.62 102.359 27.671 101.741 27.653C101.129 27.641 100.58 27.53 100.094 27.32C99.6078 27.104 99.2388 26.765 98.9868 26.303C98.7648 25.883 98.6478 25.454 98.6358 25.016C98.6238 24.578 98.6178 24.083 98.6178 23.531V15.08H100.778V23.405C100.778 23.795 100.781 24.137 100.787 24.431C100.799 24.725 100.862 24.965 100.976 25.151C101.192 25.511 101.537 25.712 102.011 25.754C102.485 25.796 103.025 25.772 103.631 25.682V27.5ZM96.8538 19.481V17.78H103.631V19.481H96.8538ZM109.648 27.77C108.664 27.77 107.8 27.557 107.056 27.131C106.312 26.705 105.73 26.114 105.31 25.358C104.896 24.602 104.689 23.732 104.689 22.748C104.689 21.686 104.893 20.765 105.301 19.985C105.709 19.199 106.276 18.59 107.002 18.158C107.728 17.726 108.568 17.51 109.522 17.51C110.53 17.51 111.385 17.747 112.087 18.221C112.795 18.689 113.32 19.352 113.662 20.21C114.004 21.068 114.133 22.079 114.049 23.243H111.898V22.451C111.892 21.395 111.706 20.624 111.34 20.138C110.974 19.652 110.398 19.409 109.612 19.409C108.724 19.409 108.064 19.685 107.632 20.237C107.2 20.783 106.984 21.584 106.984 22.64C106.984 23.624 107.2 24.386 107.632 24.926C108.064 25.466 108.694 25.736 109.522 25.736C110.056 25.736 110.515 25.619 110.899 25.385C111.289 25.145 111.589 24.8 111.799 24.35L113.941 24.998C113.569 25.874 112.993 26.555 112.213 27.041C111.439 27.527 110.584 27.77 109.648 27.77ZM106.3 23.243V21.605H112.987V23.243H106.3ZM119.954 27.77C119.06 27.77 118.28 27.545 117.614 27.095C116.948 26.645 116.432 26.033 116.066 25.259C115.7 24.485 115.517 23.612 115.517 22.64C115.517 21.656 115.7 20.78 116.066 20.012C116.438 19.238 116.963 18.629 117.641 18.185C118.319 17.735 119.117 17.51 120.035 17.51C120.959 17.51 121.733 17.735 122.357 18.185C122.987 18.629 123.464 19.238 123.788 20.012C124.112 20.786 124.274 21.662 124.274 22.64C124.274 23.606 124.112 24.479 123.788 25.259C123.464 26.033 122.981 26.645 122.339 27.095C121.697 27.545 120.902 27.77 119.954 27.77ZM120.287 25.826C120.869 25.826 121.337 25.694 121.691 25.43C122.051 25.16 122.312 24.785 122.474 24.305C122.642 23.825 122.726 23.27 122.726 22.64C122.726 22.004 122.642 21.449 122.474 20.975C122.312 20.495 122.057 20.123 121.709 19.859C121.361 19.589 120.911 19.454 120.359 19.454C119.777 19.454 119.297 19.598 118.919 19.886C118.541 20.168 118.262 20.552 118.082 21.038C117.902 21.518 117.812 22.052 117.812 22.64C117.812 23.234 117.899 23.774 118.073 24.26C118.253 24.74 118.526 25.121 118.892 25.403C119.258 25.685 119.723 25.826 120.287 25.826ZM122.726 27.5V20.678H122.456V14.54H124.643V27.5H122.726Z" fill="white"/>
<rect x="168" y="6" width="30" height="30" rx="15" transform="rotate(90 168 6)" fill="white"/>
<g clip-path="url(#clip0_1_287)">
<path d="M157 21.5L151.51 27L150 25.5562L154.049 21.5L150 17.4437L151.51 16L157 21.5Z" fill="#007377"/>
</g>
<defs>
<clipPath id="clip0_1_287">
<rect width="10" height="10" fill="white" transform="translate(158 16) rotate(90)"/>
</clipPath>
</defs>
</svg>
