<svg width="26" height="24" viewBox="0 0 26 24" fill="none" xmlns="http://www.w3.org/2000/svg">
<path fill-rule="evenodd" clip-rule="evenodd" d="M6.83145 23.5428V18.2559H2.26748C1.78331 18.2559 1.31896 18.0635 0.976597 17.7212C0.634233 17.3788 0.441895 16.9145 0.441895 16.4303V1.82559C0.441895 1.34141 0.634233 0.877067 0.976597 0.534703C1.31896 0.192339 1.78331 0 2.26748 0H24.1745C24.6587 0 25.1231 0.192339 25.4654 0.534703C25.8078 0.877067 26.0001 1.34141 26.0001 1.82559V16.4303C26.0001 16.9145 25.8078 17.3788 25.4654 17.7212C25.1231 18.0635 24.6587 18.2559 24.1745 18.2559H13.221L7.61098 23.8659C7.54715 23.9299 7.46576 23.9735 7.37712 23.9912C7.28848 24.0089 7.19658 23.9998 7.11308 23.9652C7.02959 23.9306 6.95825 23.872 6.90811 23.7968C6.85797 23.7216 6.83129 23.6332 6.83145 23.5428ZM5.91866 11.8663C5.91866 11.6242 6.01483 11.3921 6.18601 11.2209C6.35719 11.0497 6.58937 10.9535 6.83145 10.9535H19.6106C19.8527 10.9535 20.0848 11.0497 20.256 11.2209C20.4272 11.3921 20.5234 11.6242 20.5234 11.8663C20.5234 12.1084 20.4272 12.3406 20.256 12.5118C20.0848 12.683 19.8527 12.7791 19.6106 12.7791H6.83145C6.58937 12.7791 6.35719 12.683 6.18601 12.5118C6.01483 12.3406 5.91866 12.1084 5.91866 11.8663ZM6.83145 5.47676C6.58937 5.47676 6.35719 5.57293 6.18601 5.74412C6.01483 5.9153 5.91866 6.14747 5.91866 6.38956C5.91866 6.63165 6.01483 6.86382 6.18601 7.035C6.35719 7.20618 6.58937 7.30235 6.83145 7.30235H19.6106C19.8527 7.30235 20.0848 7.20618 20.256 7.035C20.4272 6.86382 20.5234 6.63165 20.5234 6.38956C20.5234 6.14747 20.4272 5.9153 20.256 5.74412C20.0848 5.57293 19.8527 5.47676 19.6106 5.47676H6.83145Z" fill="#007377"/>
</svg>
