<svg width="15" height="12" viewBox="0 0 15 12" fill="none" xmlns="http://www.w3.org/2000/svg">
<path fill-rule="evenodd" clip-rule="evenodd" d="M6.81694 1.35193C6.81758 1.35551 6.81818 1.36072 6.81818 1.36787V10.6323C6.81818 10.6395 6.81758 10.6448 6.81694 10.6484L4.80131 8.43053L4.79154 8.42001C4.66562 8.28727 4.51307 8.18126 4.34338 8.10859C4.17369 8.03592 3.9905 7.99814 3.80521 7.99759H1.37188C1.36826 7.99322 1.36364 7.98465 1.36364 7.97029V4.02922C1.36364 4.01533 1.36815 4.00694 1.37178 4.00258H3.80863L3.81106 4.00258C3.99335 4.00195 4.17363 3.96526 4.34101 3.89475C4.5084 3.82423 4.65942 3.72134 4.78499 3.59227C4.79047 3.58663 4.79586 3.5809 4.80114 3.57507L6.81694 1.35193ZM5.84437 0.416613C6.74071 -0.494837 8.18182 0.209915 8.18182 1.36787V10.6323C8.18182 11.7996 6.72203 12.4994 5.83215 11.5706C5.82806 11.5664 5.82402 11.562 5.82005 11.5577L3.79486 9.32927H1.36364C0.585306 9.32927 0 8.69557 0 7.97029V4.02922C0 3.30418 0.585724 2.67091 1.36364 2.67091H3.79958L5.82567 0.43641C5.83177 0.429689 5.838 0.423088 5.84437 0.416613ZM11.7796 0.879417C12.0397 0.613459 12.4712 0.603728 12.7436 0.857681C15.741 3.65275 15.7643 8.36102 12.7405 11.1454C12.4665 11.3977 12.035 11.3853 11.7767 11.1177C11.5183 10.8502 11.531 10.4288 11.805 10.1765C14.2521 7.92314 14.2426 4.09673 11.8019 1.8208C11.5295 1.56685 11.5196 1.14537 11.7796 0.879417ZM9.81828 3.13692C10.1196 2.91634 10.5469 2.97603 10.7728 3.27026C11.3428 4.01272 11.5907 5.03825 11.5907 6.00009C11.5907 6.96193 11.3428 7.98746 10.7728 8.72992C10.5469 9.02414 10.1196 9.08384 9.81828 8.86325C9.51699 8.64267 9.45586 8.22533 9.68174 7.93111C10.0206 7.48971 10.2271 6.77674 10.2271 6.00009C10.2271 5.22343 10.0206 4.51047 9.68174 4.06907C9.45586 3.77485 9.51699 3.35751 9.81828 3.13692Z" fill="#F6DBA0"/>
</svg>
